Coordinates
version=1
nRows=7
nColumns=40
inDegrees=yes

Units are S.I. units (second, meters, Newtons, ...)
Angles are in degrees.

endheader
time	pelvis_tilt	pelvis_list	pelvis_rotation	pelvis_tx	pelvis_ty	pelvis_tz	hip_flexion_r	hip_adduction_r	hip_rotation_r	knee_angle_r	knee_angle_r_beta	ankle_angle_r	subtalar_angle_r	mtp_angle_r	hip_flexion_l	hip_adduction_l	hip_rotation_l	knee_angle_l	knee_angle_l_beta	ankle_angle_l	subtalar_angle_l	mtp_angle_l	lumbar_extension	lumbar_bending	lumbar_rotation	arm_flex_r	arm_add_r	arm_rot_r	elbow_flex_r	pro_sup_r	wrist_flex_r	wrist_dev_r	arm_flex_l	arm_add_l	arm_rot_l	elbow_flex_l	pro_sup_l	wrist_flex_l	wrist_dev_l
      0.55000000	     -3.41007747	     -1.42142379	     -1.29845987	     -0.65775153	      0.88842831	     -1.00767622	      3.78332668	      3.74636714	    -17.48555800	    -18.09133319	     -0.31575333	     12.45479614	      2.13573628	      1.31148967	     31.95765449	      7.70816287	     10.95606808	    -44.70639947	     -0.78027387	      9.54643430	     18.54867339	     20.87563514	     -4.14208472	      0.84212400	      1.44348488	      4.82123316	    -11.70034500	    -14.66311542	     40.78653346	     89.95437384	      0.00000000	      0.00000000	     -5.57728054	      7.00483984	     20.28935222	     29.43813643	     89.95437384	      0.00000000	      0.00000000
      0.56000000	     -3.40046475	     -0.97564753	     -1.52603126	     -0.65007258	      0.88813276	     -1.00738363	      3.11910986	      3.26543528	    -17.21723004	    -17.90588838	     -0.31251671	     12.89138722	      2.53660821	      0.92172558	     31.94497542	      7.04949819	     11.42982272	    -41.55059954	     -0.72519477	      9.09153100	     18.28968815	     20.63287590	     -4.17969181	      0.33265723	      1.76961401	      4.97694493	    -11.82704834	    -14.56795906	     41.51778768	     89.95437384	      0.00000000	      0.00000000	     -5.72204100	      6.97928915	     19.87153479	     28.70659561	     89.95437384	      0.00000000	      0.00000000
      0.57000000	     -3.80037246	     -1.09276518	     -1.68942671	     -0.64265596	      0.88695827	     -1.00691994	      2.94488557	      3.42670003	    -17.28225123	    -17.74741714	     -0.30975086	     13.05822531	      2.66058584	      0.78255971	     32.61532021	      7.03932722	     11.61716343	    -38.83398572	     -0.67778091	      9.06473395	     17.62696783	     20.33320672	     -3.78010383	      0.43604346	      1.98261939	      5.15958743	    -12.02074046	    -14.41134652	     42.10295744	     89.95437384	      0.00000000	      0.00000000	     -6.15353389	      6.83426291	     19.66717549	     28.44609306	     89.95437384	      0.00000000	      0.00000000
      0.58000000	     -3.71116225	     -0.64912375	     -1.89108833	     -0.63456502	      0.88664712	     -1.00658220	      2.20862677	      2.88371958	    -17.36939651	    -17.67097809	     -0.30841675	     13.45079329	      3.37139021	      0.20939990	     32.39029545	      6.45288195	     12.24794947	    -35.66293467	     -0.62243563	      8.69612144	     16.94665850	     19.30527547	     -3.85723893	     -0.11893444	      2.21039761	      5.33826751	    -12.04271075	    -14.33774474	     42.65367317	     89.95437384	      0.00000000	      0.00000000	     -6.39550288	      6.88549968	     19.10060191	     27.85360682	     89.95437384	      0.00000000	      0.00000000
      0.59000000	     -4.19221561	     -0.85319945	     -1.95788229	     -0.62703518	      0.88518844	     -1.00645437	      2.13624592	      3.10914945	    -17.46228809	    -17.57927893	     -0.30681630	     13.57205935	      3.42685615	      0.06141465	     33.11723749	      6.49903079	     12.42331836	    -33.08604596	     -0.57746044	      8.58541722	     15.93473606	     18.89507862	     -3.36303847	      0.09043077	      2.39577760	      5.38747421	    -12.32907305	    -14.07325884	     43.19072768	     89.95437384	      0.00000000	      0.00000000	     -6.76101060	      6.72847410	     18.94392168	     27.65245585	     89.95437384	      0.00000000	      0.00000000
      0.60000000	     -4.18484277	     -0.54014106	     -2.10243104	     -0.61895021	      0.88457486	     -1.00634220	      1.55716882	      2.68882095	    -17.46994229	    -17.69168584	     -0.30877817	     13.96171724	      3.79634108	     -0.49725355	     33.04983526	      6.20110335	     13.50715349	    -30.34157722	     -0.52956042	      8.07782940	     14.40356360	     17.53796317	     -3.34165116	     -0.29629441	      2.62910153	      5.54196685	    -12.42378068	    -14.00216362	     43.55254019	     89.95437384	      0.00000000	      0.00000000	     -6.91042991	      6.74697519	     18.52130055	     27.05503922	     89.95437384	      0.00000000	      0.00000000
      0.61000000	     -4.57218673	     -0.61733404	     -2.13897801	     -0.61113826	      0.88318269	     -1.00622391	      1.35643817	      2.76623542	    -17.54750297	    -17.59944390	     -0.30716824	     14.06115554	      4.08655740	     -0.81983805	     33.65955486	      6.22127147	     14.12322480	    -28.10781929	     -0.49057399	      7.49669765	     12.90931306	     16.68039127	     -2.91155780	     -0.24890976	      2.71531207	      5.57563475	    -12.60740356	    -13.70600878	     44.05807040	     89.95437384	      0.00000000	      0.00000000	     -7.21838943	      6.69038845	     18.21022542	     26.74924481	     89.95437384	      0.00000000	      0.00000000
